<svg viewBox="0 0 1024 1024" version="1.1" xmlns="http://www.w3.org/2000/svg" xmlns:xlink="http://www.w3.org/1999/xlink" width="200" height="200"><path d="M842.666667 896h-661.333334C128 896 85.333333 853.333333 85.333333 800v-576C85.333333 170.666667 128 128 181.333333 128h162.133334c25.6 0 51.2 10.666667 70.4 29.866667l91.733333 98.133333c14.933333 14.933333 34.133333 23.466667 55.466667 23.466667h281.6c53.333333 0 96 42.666667 96 96v424.533333c0 53.333333-42.666667 96-96 96zM181.333333 192C164.266667 192 149.333333 204.8 149.333333 224v578.133333c0 17.066667 14.933333 29.866667 32 29.866667h661.333334c17.066667 0 32-14.933333 32-32V375.466667c0-17.066667-14.933333-32-32-32H561.066667c-38.4 0-74.666667-17.066667-102.4-44.8l-91.733334-98.133334c-6.4-6.4-14.933333-8.533333-23.466666-8.533333H181.333333z" fill="#7f5700"></path><path d="M450.133333 740.266667c-8.533333 0-14.933333-2.133333-21.333333-8.533334l-76.8-68.266666c-12.8-10.666667-14.933333-32-2.133333-44.8 6.4-6.4 14.933333-10.666667 23.466666-10.666667h277.333334c17.066667 0 32 14.933333 32 32s-14.933333 32-32 32h-192l12.8 10.666667c12.8 10.666667 14.933333 32 2.133333 44.8-4.266667 8.533333-12.8 12.8-23.466667 12.8zM650.666667 571.733333h-277.333334c-17.066667 0-32-14.933333-32-32s14.933333-32 32-32h192l-12.8-10.666666c-12.8-12.8-14.933333-32-2.133333-44.8s32-14.933333 44.8-2.133334l76.8 68.266667c12.8 10.666667 14.933333 32 2.133333 44.8-6.4 4.266667-14.933333 8.533333-23.466666 8.533333z" fill="#7f5700" ></path></svg>